# xmcd
#
# Track frame offsets:
#	150
#	17931
#	40308
#	55483
#	74989
#	113446
#	134349
#	163370
#	190873
#	206263
#	223565
#
# Disc length: 3397 seconds
# Revision: 0
# Processed by: cddbd v1.5.2PL0 Copyright (c) Steve Scherf et al.
# Submitted via: dBpowerAMP V12.0
#
DISCID=aa0d430b
DTITLE=Lauren Barth - Forager
DYEAR=2017
DGENRE=Americana
TTITLE0=Want It Back
TTITLE1=Learned It From The Sky
TTITLE2=Getting High (Is Getting Me Down)
TTITLE3=I Won't Let Love Make A Fool Out Of Me
TTITLE4=The Devil, My Father
TTITLE5=Mama Don't Cry
TTITLE6=City High
TTITLE7=Flood To The Drought
TTITLE8=Buddies
TTITLE9=This Old Heart
TTITLE10=Forager
EXTD=
EXTT0=
EXTT1=
EXTT2=
EXTT3=
EXTT4=
EXTT5=
EXTT6=
EXTT7=
EXTT8=
EXTT9=
EXTT10=
PLAYORDER=
